<svg width="223" height="40" viewBox="0 0 223 40" fill="none" xmlns="http://www.w3.org/2000/svg">
<path d="M39.9989 23.0417C35.425 20.8544 28.0659 19.4616 21.3711 19.4616C17.2685 19.4616 14.7481 12.402 14.0457 7.77739L16.6985 3.29787C17.2932 2.29356 18.1413 1.46104 19.1588 0.882643C20.1763 0.304244 21.328 0 22.5 0C23.672 0 24.8237 0.304244 25.8412 0.882643C26.8587 1.46104 27.7068 2.29356 28.3015 3.29787L39.9989 23.0417ZM43.7536 29.3782L44.0678 29.9049C44.6705 30.9221 44.9921 32.0797 44.9999 33.2603C45.0076 34.441 44.7014 35.6027 44.1121 36.6276C43.5228 37.6526 42.6715 38.5044 41.6445 39.0966C40.6175 39.6889 39.4513 40.0005 38.2641 40H6.7337C5.54669 40.0001 4.38074 39.6882 3.35403 39.0958C2.32732 38.5034 1.47634 37.6515 0.88735 36.6266C0.298355 35.6018 -0.00771997 34.4402 0.000147948 33.2598C0.00801586 32.0793 0.329547 30.9219 0.932152 29.9049L11.0697 12.7993C12.0056 18.9594 15.8815 23.9255 21.3711 23.9255C27.5362 23.9255 36.4304 25.1218 43.7536 29.3782Z" fill="#3E82FC"/>
<path d="M75.368 8.6V31H73.032V20.664H59.016V31H56.648V8.6H59.016V18.584H73.032V8.6H75.368ZM82.6793 8.6H85.0473V31H82.6793V8.6ZM108.112 19.8H110.384V28.344C109.338 29.2613 108.101 29.9653 106.672 30.456C105.242 30.9467 103.738 31.192 102.16 31.192C99.9195 31.192 97.9035 30.7013 96.1115 29.72C94.3195 28.7387 92.9115 27.384 91.8875 25.656C90.8635 23.9067 90.3515 21.9547 90.3515 19.8C90.3515 17.6453 90.8635 15.704 91.8875 13.976C92.9115 12.2267 94.3195 10.8613 96.1115 9.88C97.9035 8.89867 99.9302 8.408 102.192 8.408C103.898 8.408 105.466 8.68533 106.896 9.24C108.325 9.77333 109.53 10.5733 110.512 11.64L109.04 13.144C107.269 11.3947 105.018 10.52 102.288 10.52C100.474 10.52 98.8315 10.9253 97.3595 11.736C95.9088 12.5253 94.7675 13.6347 93.9355 15.064C93.1035 16.472 92.6875 18.0507 92.6875 19.8C92.6875 21.5493 93.1035 23.128 93.9355 24.536C94.7675 25.944 95.9088 27.0533 97.3595 27.864C98.8102 28.6747 100.442 29.08 102.256 29.08C104.56 29.08 106.512 28.504 108.112 27.352V19.8ZM135.806 8.6V31H133.47V20.664H119.454V31H117.086V8.6H119.454V18.584H133.47V8.6H135.806ZM150.061 20.472L145.485 25.112V31H143.117V8.6H145.485V22.136L158.637 8.6H161.357L151.661 18.744L162.029 31H159.213L150.061 20.472ZM165.867 8.6H168.235V31H165.867V8.6ZM194.243 8.6V31H192.291L177.891 12.824V31H175.523V8.6H177.475L191.907 26.776V8.6H194.243ZM217.33 19.8H219.602V28.344C218.557 29.2613 217.32 29.9653 215.89 30.456C214.461 30.9467 212.957 31.192 211.378 31.192C209.138 31.192 207.122 30.7013 205.33 29.72C203.538 28.7387 202.13 27.384 201.106 25.656C200.082 23.9067 199.57 21.9547 199.57 19.8C199.57 17.6453 200.082 15.704 201.106 13.976C202.13 12.2267 203.538 10.8613 205.33 9.88C207.122 8.89867 209.149 8.408 211.41 8.408C213.117 8.408 214.685 8.68533 216.114 9.24C217.544 9.77333 218.749 10.5733 219.73 11.64L218.258 13.144C216.488 11.3947 214.237 10.52 211.506 10.52C209.693 10.52 208.05 10.9253 206.578 11.736C205.128 12.5253 203.986 13.6347 203.154 15.064C202.322 16.472 201.906 18.0507 201.906 19.8C201.906 21.5493 202.322 23.128 203.154 24.536C203.986 25.944 205.128 27.0533 206.578 27.864C208.029 28.6747 209.661 29.08 211.474 29.08C213.778 29.08 215.73 28.504 217.33 27.352V19.8Z" fill="#05060A"/>
</svg>
